<?xml version="1.0" encoding="UTF-8"?>
<svg id="Calque_1" data-name="Calque 1" xmlns="http://www.w3.org/2000/svg" viewBox="0 0 120.3 117.14">
  <defs>
    <style>
      .cls-1 {
        fill: #eb5e12;
      }

      .cls-2 {
        fill: #010101;
      }
    </style>
  </defs>
  <g>
    <path class="cls-2" d="M9.79,93.04c0-5.27,3.12-10.48,16.42-12.42l3.39-.47c-1.02-1.87-3.46-2.8-6.65-2.8-4.48,0-7.8,1.94-9.77,4.74v-16.29c2.71-.8,6.78-1.34,11.06-1.34,13.84,0,20.96,5.54,20.96,16.82v22.56c-2.99-1.7-5.36-3.2-8.07-3.2-4.95,0-8.14,3.2-14.86,3.2-7.94,0-12.48-4.41-12.48-10.81ZM30.28,90.23v-3.07l-1.49.27c-3.59.67-5.02,2-5.02,3.94s1.29,2.87,3.05,2.87,3.46-1,3.46-4.01Z"/>
    <path class="cls-2" d="M48.68,64.47h16.1v39.38h-16.1v-39.38Z"/>
    <path class="cls-2" d="M67.86,89.85h6.37c2.31,0,2.94-1.26,2.1-4.2l-8.9-21.18h16.45l4.52,15.16,4.86-15.16h17.08l-7.21,21.17c-4.06,13.86-12.94,18.21-31,18.21h-4.27v-14Z"/>
  </g>
  <path class="cls-2" d="M12.44,21.71v38.5h16.45v-14.35h16.31v-13.3h-16.31v-8.05h3.01c7.91,0,11.06,1.12,13.3,3.64V11.21h-23.24c-7.28,0-9.52,3.08-9.52,10.5Z"/>
  <g>
    <path class="cls-1" d="M56.75,11.21c-5.18,0-8.19,3.5-8.19,7.77s3.01,7.77,8.19,7.77,8.26-3.43,8.26-7.77-3.08-7.77-8.26-7.77Z"/>
    <path class="cls-2" d="M48.7,29.99l.03,30.22h16.1l-.03-30.22c-2.17,1.33-5.11,2.03-8.05,2.03s-5.81-.7-8.05-2.03Z"/>
  </g>
  <path class="cls-1" d="M101.41,40.97l6.91-9.79-4.31-9.96h-8.06c.64,1.16.99,2.49.99,3.92,0,4.34-3.01,7.77-8.08,7.77s-8.02-3.43-8.02-7.77c0-1.43.34-2.77.97-3.92h-8.05l-4.29,9.96,6.89,9.79-9.1,19.25h17.15l3.99-11.83,4.62,11.83h17.5l-9.1-19.25Z"/>
</svg>